<?xml version="1.0" standalone="no"?><!DOCTYPE svg PUBLIC "-//W3C//DTD SVG 1.1//EN" "http://www.w3.org/Graphics/SVG/1.1/DTD/svg11.dtd"><svg t="1608345222100" class="icon" viewBox="0 0 1024 1024" version="1.1" xmlns="http://www.w3.org/2000/svg" p-id="1444" xmlns:xlink="http://www.w3.org/1999/xlink" width="16" height="16"><defs><style type="text/css"></style></defs><path d="M841.142857 876.251429h-658.285714c-58.514286 0-109.714286-51.2-109.714286-109.714286v-512c0-58.514286 51.2-109.714286 109.714286-109.714286h658.285714c58.514286 0 109.714286 51.2 109.714286 109.714286v512c0 58.514286-51.2 109.714286-109.714286 109.714286z m-658.285714-658.285715c-21.942857 0-36.571429 14.628571-36.571429 36.571429v512c0 21.942857 14.628571 36.571429 36.571429 36.571428h658.285714c21.942857 0 36.571429-14.628571 36.571429-36.571428v-512c0-21.942857-14.628571-36.571429-36.571429-36.571429h-658.285714z" fill="#505766" p-id="1445"></path><path d="M477.037714 254.537143h73.142857v73.142857h-73.142857zM477.037714 693.394286h73.142857v73.142857h-73.142857z" fill="#EE2223" p-id="1446"></path><path d="M477.037714 291.108571h73.142857v438.857143h-73.142857z" fill="#EE2223" p-id="1447"></path><path d="M608.694857 342.308571c29.257143 21.942857 43.885714 51.2 43.885714 95.085715h-58.514285c-7.314286-21.942857-14.628571-43.885714-29.257143-51.2-14.628571-14.628571-36.571429-21.942857-65.828572-21.942857s-51.2 7.314286-65.828571 14.628571c-14.628571 7.314286-21.942857 21.942857-21.942857 43.885714 0 14.628571 7.314286 29.257143 29.257143 43.885715 7.314286 0 29.257143 7.314286 65.828571 21.942857 51.2 14.628571 87.771429 29.257143 102.4 36.571428 36.571429 21.942857 51.2 51.2 51.2 87.771429s-14.628571 65.828571-43.885714 80.457143c-21.942857 21.942857-58.514286 29.257143-109.714286 29.257143s-87.771429-7.314286-109.714286-29.257143c-36.571429-21.942857-51.2-58.514286-58.514285-109.714286h58.514285c7.314286 29.257143 14.628571 58.514286 36.571429 65.828571 14.628571 14.628571 36.571429 14.628571 73.142857 14.628572 29.257143 0 51.2-7.314286 73.142857-14.628572 14.628571-7.314286 21.942857-14.628571 21.942857-36.571428s-14.628571-36.571429-36.571428-51.2c-7.314286-7.314286-36.571429-14.628571-80.457143-29.257143-43.885714-14.628571-73.142857-21.942857-87.771429-29.257143-29.257143-14.628571-43.885714-43.885714-43.885714-80.457143 0-36.571429 14.628571-58.514286 43.885714-80.457143 29.257143-21.942857 58.514286-29.257143 102.4-29.257142 43.885714 0 80.457143 14.628571 109.714286 29.257142z" fill="#505766" p-id="1448"></path></svg>