<?xml version="1.0" standalone="no"?><!DOCTYPE svg PUBLIC "-//W3C//DTD SVG 1.1//EN" "http://www.w3.org/Graphics/SVG/1.1/DTD/svg11.dtd"><svg t="1608281509275" class="icon" viewBox="0 0 1024 1024" version="1.1" xmlns="http://www.w3.org/2000/svg" p-id="1306" width="16" height="16" xmlns:xlink="http://www.w3.org/1999/xlink"><defs><style type="text/css"></style></defs><path d="M841.142857 877.714286h-658.285714c-58.514286 0-109.714286-51.2-109.714286-109.714286v-512C73.142857 197.485714 124.342857 146.285714 182.857143 146.285714h658.285714c58.514286 0 109.714286 51.2 109.714286 109.714286v512c0 58.514286-51.2 109.714286-109.714286 109.714286z m-658.285714-658.285715c-21.942857 0-36.571429 14.628571-36.571429 36.571429v512c0 21.942857 14.628571 36.571429 36.571429 36.571429h658.285714c21.942857 0 36.571429-14.628571 36.571429-36.571429v-512c0-21.942857-14.628571-36.571429-36.571429-36.571429h-658.285714z" fill="#505766" p-id="1307"></path><path d="M295.204571 587.044571c43.885714 0 73.142857-29.257143 73.142858-73.142857s-29.257143-73.142857-73.142858-73.142857-73.142857 29.257143-73.142857 73.142857 29.257143 73.142857 73.142857 73.142857zM514.633143 587.044571c43.885714 0 73.142857-29.257143 73.142857-73.142857s-29.257143-73.142857-73.142857-73.142857-73.142857 29.257143-73.142857 73.142857 29.257143 73.142857 73.142857 73.142857z" fill="#505766" p-id="1308"></path><path d="M734.061714 587.044571c43.885714 0 73.142857-29.257143 73.142857-73.142857s-29.257143-73.142857-73.142857-73.142857-73.142857 29.257143-73.142857 73.142857 29.257143 73.142857 73.142857 73.142857z" fill="#EE2223" p-id="1309"></path></svg>